PathFileType	4	(X/Y/Z)	D:\TRACE\spot_10-12-23\spot_arm_motion_2_1-platform.trc
DataRate	CameraRate	NumFrames	NumMarkers	Units	OrigDataRate	OrigDataStartFrame	OrigNumFrames
100.00	100.00	      42	5	mm	100.00	2626	      7000
Frame#	Time	Left_Front			Right_Front			Left_Aft			Right_Aft			Post			
		X1	Y1	Z1	X2	Y2	Z2	X3	Y3	Z3	X4	Y4	Z4	X5	Y5	Z5	

2626	26.250	-766.15894	-13.64129	-646.14972	806.22614	-8.45166	-638.87463	-683.66400	18.43315	491.68091	733.79266	25.63817	577.52966	16.39540	715.08191	-985.14508	
2627	26.260	-765.17816	-12.12382	-645.70740	807.02765	-6.92851	-638.81848	-682.47296	17.40281	492.04410	734.71320	24.50670	577.99445	17.12871	717.26129	-983.21301	
2628	26.270	-764.08203	-10.60010	-645.39502	808.29950	-5.31650	-638.45374	-681.41010	16.37917	492.17633	735.89087	23.28674	578.41400	18.10516	719.53369	-981.24536	
2629	26.280	-763.18170	-8.94677	-645.03735	809.33521	-4.14545	-638.26752	-680.19275	15.29512	492.66470	736.83362	22.12955	578.78583	19.47230	721.73181	-979.34570	
2630	26.290	-761.66217	-7.65492	-644.93909	810.31970	-2.42331	-637.63562	-679.22186	14.48358	492.88873	738.11597	20.86333	579.10107	20.70910	724.13947	-977.52606	
2631	26.300	-761.08545	-5.59807	-644.48871	811.63165	-0.73522	-637.53375	-678.01282	13.42604	493.42191	739.19696	19.68608	579.56372	21.75610	726.39954	-975.84479	
2632	26.310	-759.83942	-4.34557	-644.00476	812.61456	0.66862	-637.12714	-676.95868	12.26266	493.67215	740.22266	18.29564	579.89563	22.77689	728.63330	-973.83759	
2633	26.320	-758.83783	-2.77652	-643.60992	813.66589	2.29958	-636.90601	-675.84387	11.20946	494.07483	741.46094	17.13958	580.30536	23.73694	731.13965	-971.99091	
2634	26.330	-757.79651	-1.20501	-643.39001	814.75439	3.62836	-636.23541	-674.84955	10.14034	494.44788	742.48853	15.83587	580.66364	69.36709	656.60028	-978.85583	
2635	26.340	-756.49664	0.12051	-643.07819	816.06793	5.39471	-636.01166	-673.73486	9.07249	495.11929	743.60254	14.73091	581.16174	59.12670	678.37836	-974.51434	
2636	26.350	-755.61853	2.12814	-642.66528	816.73016	6.85315	-635.75885	-672.55029	7.92540	495.45996	744.66382	13.40916	581.46460	26.99859	737.99390	-965.74359	
2637	26.360	-754.67920	3.63032	-642.16656	817.98053	8.31441	-635.39923	-671.66754	6.98425	495.65286	745.65155	12.18067	581.85138	28.14630	740.29797	-963.49884	
2638	26.370	-753.54083	5.06826	-641.85388	819.25262	10.15736	-634.84686	-670.48438	5.84491	496.19589	746.82263	10.77281	582.08917	29.15423	742.64844	-961.20782	
2639	26.380	-752.48425	6.70616	-641.49152	820.22443	11.65606	-634.34619	-669.77185	4.83928	496.37219	747.74573	9.57577	582.54419	30.26768	745.24670	-958.89355	
2640	26.390	-751.39691	8.12229	-641.00208	821.08679	13.11562	-634.04034	-668.61707	3.53220	496.70911	748.95630	8.22208	582.99548	31.34380	747.42523	-956.64172	
2641	26.400	-750.57166	10.03044	-640.72772	822.24445	14.85847	-633.85406	-667.53998	2.50149	497.10019	749.73401	7.02449	583.44739	32.08590	749.69086	-954.39691	
2642	26.410	-749.56744	11.54210	-640.38574	822.73975	16.12716	-633.61267	-666.67572	1.69865	497.39981	750.71967	5.71324	583.76581	32.96664	751.95996	-952.24292	
2643	26.420	-748.62512	13.01032	-639.90857	823.94843	17.96969	-633.17267	-665.54852	0.51513	497.82507	751.78607	4.60335	584.13629	34.14943	754.31073	-950.13599	
2644	26.430	-747.60199	14.56204	-639.48346	825.06195	19.45243	-632.55267	-664.48578	-0.76218	498.33655	752.71429	3.17882	584.33618	35.12782	756.63055	-947.84167	
2645	26.440	-746.47913	16.06206	-639.01959	825.90082	21.08990	-632.26257	-663.59271	-1.81902	498.77805	753.83649	2.00356	584.71912	36.06023	758.94946	-945.90210	
2646	26.450	-745.76581	17.80633	-638.69666	826.72906	22.76175	-631.93195	-662.83124	-2.68388	498.95346	754.71497	0.56177	585.03003	36.88864	761.12280	-944.06134	
2647	26.460	-744.84741	19.36474	-638.52545	827.92682	23.97041	-631.44165	-661.80566	-3.91998	499.29626	755.53357	-0.60789	585.51349	37.78662	763.46271	-941.91461	
2648	26.470	-744.00812	20.63321	-637.79285	828.46027	25.77542	-631.19653	-660.98462	-4.94420	499.64969	756.62817	-1.87483	585.85632	38.72809	765.76013	-939.89240	
2649	26.480	-743.10474	22.46465	-637.46643	829.42255	27.20187	-630.71375	-659.99908	-5.89912	499.94867	757.28015	-3.07733	586.19739	39.57042	768.01984	-937.94739	
2650	26.490	-742.22852	24.03289	-637.01923	830.51379	28.74890	-630.29645	-659.14032	-7.08155	500.28159	758.22003	-4.48137	586.57806	40.28008	770.28638	-935.88666	
2651	26.500	-741.46021	25.57275	-636.70325	831.35779	30.44751	-629.72681	-658.45966	-8.09184	500.55103	759.10278	-5.59621	586.92047	41.19011	772.38202	-933.69995	
2652	26.510	-740.64801	27.02996	-636.37708	831.99573	31.61352	-629.39209	-657.49414	-9.30508	500.90314	759.85364	-6.88667	587.19098	42.22247	774.36786	-931.52258	
2653	26.520	-739.57733	28.33314	-635.85535	832.77185	33.29038	-629.11053	-656.63092	-10.25001	501.41928	760.59363	-8.09985	587.53815	42.98430	776.64038	-929.41095	
2654	26.530	-738.91937	30.09210	-635.44745	833.52234	34.84111	-628.74896	-655.84930	-11.24719	501.99054	760.88879	-10.08271	587.76459	43.57711	778.74579	-927.01373	
2655	26.540	-738.18561	31.60078	-635.05817	834.43402	36.30090	-628.27496	-655.03906	-12.57634	502.12650	762.19287	-10.54369	588.02881	44.18303	780.89801	-924.67908	
2656	26.550	-737.62555	32.86948	-634.59149	835.05701	37.53301	-627.70898	-654.26642	-13.47119	502.51038	762.48383	-12.24862	588.41956	44.97123	783.25031	-922.68060	
2657	26.560	-736.85529	34.28426	-634.34076	835.83618	39.21844	-627.39099	-653.78662	-14.25974	502.56351	763.15717	-13.44163	588.77222	45.88515	785.17413	-920.50238	
2658	26.570	-736.10522	35.72870	-633.86823	836.55804	40.42830	-626.98743	-652.95959	-15.44319	502.91635	763.96326	-14.55862	589.10864	46.30935	787.20154	-918.53259	
2659	26.580	-735.39362	36.92795	-633.26227	837.24994	41.87335	-626.53918	-652.42023	-16.25369	503.11087	764.81006	-15.70827	589.33374	46.85747	789.22192	-916.49738	
2660	26.590	-734.92548	38.66280	-633.02032	837.53101	43.38156	-626.28400	-651.78131	-17.30659	503.43246	765.32819	-16.74881	589.72906	47.72205	791.14709	-914.36078	
2661	26.600	-734.31982	39.99355	-632.73059	838.37390	44.68708	-625.74194	-651.23193	-17.99523	503.69229	766.15015	-17.96573	589.92834	48.45558	792.98914	-912.64081	
2662	26.610	-733.85846	41.25391	-632.20837	838.80731	45.92664	-625.39368	-650.46680	-19.28341	503.92325	766.75031	-18.91501	590.21967	49.08685	794.91193	-910.92615	
2663	26.620	-733.30066	42.69455	-631.84076	839.51917	47.36481	-625.01318	-650.16589	-20.07906	504.06268	767.10370	-19.98538	590.45129	49.59121	796.92554	-908.95166	
2664	26.630	-732.73749	43.74586	-631.37164	839.81598	48.54352	-624.64880	-649.62610	-21.10027	504.45593	767.68634	-21.10871	590.71283	49.67472	798.65540	-907.45782	
2665	26.640	-732.28400	45.12338	-631.03418	840.37769	49.86492	-624.36285	-649.01752	-21.99456	505.10089	768.17328	-22.03972	591.01697	50.33372	800.62640	-905.53162	
2666	26.650	-732.01605	46.41481	-630.66705	840.48901	51.18979	-623.91638	-648.74292	-22.74969	504.92896	768.66962	-23.08725	591.15411	50.61941	802.25793	-903.89044	
2667	26.660	-731.55176	47.62854	-630.41516	841.02582	52.19549	-623.44855	-648.45813	-24.19715	505.51529	768.88190	-24.12497	591.41895	51.09032	803.81482	-902.08289	
